<svg viewBox="0 0 284 30" xmlns="http://www.w3.org/2000/svg">
<path d="M25.8086 22.4629C25.8086 23.0254 25.709 23.6289 25.5098 24.2734C25.3223 24.918 25.0059 25.5156 24.5605 26.0664C24.127 26.6172 23.5586 27.0801 22.8555 27.4551C22.1523 27.8184 21.291 28 20.2715 28H2.92188C2.59375 28 2.28906 27.9414 2.00781 27.8242C1.72656 27.707 1.48047 27.5488 1.26953 27.3496C1.07031 27.1387 0.91211 26.8926 0.79492 26.6113C0.67773 26.3301 0.619141 26.0254 0.619141 25.6973V5.0957C0.619141 4.7793 0.67773 4.4805 0.79492 4.1992C0.91211 3.918 1.07031 3.6719 1.26953 3.4609C1.48047 3.25 1.72656 3.0859 2.00781 2.9688C2.28906 2.8516 2.59375 2.793 2.92188 2.793H18.2148C18.7773 2.793 19.3809 2.8926 20.0254 3.0918C20.6699 3.291 21.2676 3.6133 21.8184 4.0586C22.3809 4.4922 22.8438 5.0605 23.207 5.7637C23.582 6.4668 23.7695 7.3281 23.7695 8.3477V9.209C23.7695 10.0176 23.6348 10.8906 23.3652 11.8281C23.0957 12.7539 22.6621 13.6328 22.0645 14.4648C22.5801 14.7812 23.0605 15.1621 23.5059 15.6074C23.9629 16.0527 24.3613 16.5684 24.7012 17.1543C25.041 17.7402 25.3105 18.4023 25.5098 19.1406C25.709 19.8789 25.8086 20.6934 25.8086 21.584V22.4629ZM21.2383 21.584C21.2383 20.9863 21.1445 20.4531 20.957 19.9844C20.7695 19.5039 20.5059 19.0938 20.166 18.7539C19.8262 18.4141 19.416 18.1562 18.9355 17.9805C18.4551 17.793 17.916 17.6992 17.3184 17.6992H7.0176V13.0938H15.2617C15.8594 13.0938 16.3984 13.0059 16.8789 12.8301C17.3594 12.6426 17.7695 12.3789 18.1094 12.0391C18.4492 11.6992 18.707 11.2949 18.8828 10.8262C19.0703 10.3457 19.1641 9.8066 19.1641 9.209V8.3477C19.1641 7.6914 18.8477 7.3633 18.2148 7.3633H5.1895V23.4297H20.2715C20.3535 23.4297 20.4531 23.4238 20.5703 23.4121C20.6875 23.4004 20.793 23.3652 20.8867 23.3066C20.9805 23.248 21.0625 23.1484 21.1328 23.0078C21.2031 22.8672 21.2383 22.6738 21.2383 22.4277V21.584ZM51.0409 21.584C51.0409 22.3691 50.9413 23.0781 50.7421 23.7109C50.5429 24.332 50.2792 24.8828 49.9511 25.3633C49.623 25.832 49.2421 26.2363 48.8085 26.5762C48.3749 26.9043 47.9179 27.1738 47.4374 27.3848C46.9687 27.5957 46.4882 27.7539 45.996 27.8594C45.5155 27.9531 45.0585 28 44.6249 28H36.3808C35.748 28 35.0566 27.8887 34.3066 27.666C33.5566 27.4434 32.8593 27.0801 32.2148 26.5762C31.582 26.0605 31.0487 25.3984 30.6152 24.5898C30.1933 23.7695 29.9823 22.7676 29.9823 21.584V15.3965C29.9823 14.2246 30.1933 13.2344 30.6152 12.4258C31.0487 11.6055 31.582 10.9434 32.2148 10.4395C32.8593 9.9238 33.5566 9.5547 34.3066 9.332C35.0566 9.1094 35.748 8.998 36.3808 8.998H44.6249C45.7968 8.998 46.7929 9.209 47.6132 9.6309C48.4335 10.0527 49.0956 10.5859 49.5995 11.2305C50.1034 11.8633 50.4667 12.5547 50.6894 13.3047C50.9237 14.0547 51.0409 14.752 51.0409 15.3965V21.584ZM46.4706 15.4316C46.4706 14.7988 46.3124 14.3301 45.996 14.0254C45.6796 13.7207 45.2226 13.5684 44.6249 13.5684H36.4159C35.8066 13.5684 35.3437 13.7266 35.0273 14.043C34.7109 14.3477 34.5527 14.7988 34.5527 15.3965V21.584C34.5527 22.1816 34.7109 22.6387 35.0273 22.9551C35.3437 23.2715 35.8066 23.4297 36.4159 23.4297H44.6249C45.246 23.4297 45.7089 23.2715 46.0136 22.9551C46.3183 22.6387 46.4706 22.1816 46.4706 21.584V15.4316ZM72.6522 13.5684H62.369C61.7479 13.5684 61.2791 13.7266 60.9627 14.043C60.6463 14.3477 60.4881 14.7988 60.4881 15.3965V28H55.9178V15.3965C55.9178 14.6113 56.0174 13.9082 56.2166 13.2871C56.4159 12.666 56.6795 12.1211 57.0077 11.6523C57.3475 11.1719 57.7342 10.7676 58.1678 10.4395C58.6014 10.0996 59.0526 9.8242 59.5213 9.6133C60.0018 9.4023 60.4823 9.25 60.9627 9.1562C61.4549 9.0508 61.912 8.998 62.3338 8.998H72.6522V13.5684ZM97.533 21.584C97.533 22.3691 97.433 23.0781 97.234 23.7109C97.035 24.332 96.771 24.8828 96.443 25.3633C96.115 25.832 95.734 26.2363 95.301 26.5762C94.867 26.9043 94.41 27.1738 93.929 27.3848C93.461 27.5957 92.9802 27.7539 92.488 27.8594C92.0076 27.9531 91.5505 28 91.117 28H82.8728C82.0877 28 81.3845 27.9004 80.7634 27.7012C80.1423 27.502 79.5916 27.2383 79.1111 26.9102C78.6423 26.5703 78.238 26.1836 77.8982 25.75C77.5701 25.3164 77.3005 24.8652 77.0896 24.3965C76.8787 23.916 76.7205 23.4355 76.615 22.9551C76.5212 22.4629 76.4744 22.0059 76.4744 21.584V15.3965C76.4744 14.2246 76.6853 13.2344 77.1072 12.4258C77.5408 11.6055 78.074 10.9434 78.7068 10.4395C79.3513 9.9238 80.0486 9.5547 80.7986 9.332C81.5486 9.1094 82.24 8.998 82.8728 8.998H91.117V13.5684H82.908C82.2986 13.5684 81.8357 13.7266 81.5193 14.043C81.2029 14.3477 81.0447 14.7988 81.0447 15.3965V21.5488C81.0447 22.1699 81.197 22.6387 81.5017 22.9551C81.8181 23.2715 82.2752 23.4297 82.8728 23.4297H91.117C91.738 23.4297 92.2009 23.2715 92.5056 22.9551C92.8103 22.6387 92.9627 22.1816 92.9627 21.584V0.964844H97.533V21.584ZM123.416 15.291C123.416 15.9238 123.304 16.6094 123.082 17.3477C122.859 18.0742 122.496 18.7539 121.992 19.3867C121.5 20.0078 120.849 20.5293 120.041 20.9512C119.244 21.373 118.271 21.584 117.123 21.584H108.879V17.2422H117.123C117.744 17.2422 118.224 17.0547 118.564 16.6797C118.904 16.293 119.074 15.8184 119.074 15.2559C119.074 14.6582 118.881 14.1895 118.494 13.8496C118.119 13.5098 117.662 13.3398 117.123 13.3398H108.879C108.257 13.3398 107.777 13.5332 107.437 13.9199C107.097 14.2949 106.927 14.7637 106.927 15.3262V21.707C106.927 22.3164 107.115 22.791 107.49 23.1309C107.877 23.4707 108.351 23.6406 108.914 23.6406H117.123V28H108.879C108.246 28 107.56 27.8887 106.822 27.666C106.095 27.4434 105.416 27.0859 104.783 26.5938C104.162 26.0898 103.64 25.4395 103.218 24.6426C102.797 23.834 102.586 22.8555 102.586 21.707V15.291C102.586 14.6582 102.697 13.9785 102.92 13.252C103.142 12.5137 103.5 11.834 103.992 11.2129C104.496 10.5801 105.146 10.0527 105.943 9.6309C106.752 9.209 107.73 8.998 108.879 8.998H117.123C117.756 8.998 118.435 9.1094 119.162 9.332C119.9 9.5547 120.58 9.918 121.201 10.4219C121.834 10.9141 122.361 11.5645 122.783 12.373C123.205 13.1699 123.416 14.1426 123.416 15.291ZM144.201 13.5684H133.918C133.296 13.5684 132.828 13.7266 132.511 14.043C132.195 14.3477 132.037 14.7988 132.037 15.3965V28H127.466V15.3965C127.466 14.6113 127.566 13.9082 127.765 13.2871C127.964 12.666 128.228 12.1211 128.556 11.6523C128.896 11.1719 129.283 10.7676 129.716 10.4395C130.15 10.0996 130.601 9.8242 131.07 9.6133C131.55 9.4023 132.031 9.25 132.511 9.1562C133.004 9.0508 133.461 8.998 133.882 8.998H144.201V13.5684Z" fill="white"/>
<path d="M213.773 13.3398C213.773 14.3828 213.645 15.3145 213.387 16.1348C213.129 16.9551 212.777 17.6816 212.332 18.3145C211.898 18.9355 211.395 19.4688 210.82 19.9141C210.246 20.3594 209.643 20.7227 209.01 21.0039C208.389 21.2852 207.756 21.4902 207.111 21.6191C206.479 21.748 205.881 21.8125 205.318 21.8125H194.982V17.2422H205.318C205.904 17.1953 206.432 17.0781 206.9 16.8906C207.381 16.6914 207.791 16.4277 208.131 16.0996C208.471 15.7715 208.734 15.3789 208.922 14.9219C209.109 14.4531 209.203 13.9258 209.203 13.3398V11.2656C209.145 10.6914 209.021 10.1641 208.834 9.68357C208.646 9.20307 208.389 8.79297 208.061 8.45307C207.744 8.11327 207.357 7.84957 206.9 7.66207C206.443 7.46287 205.916 7.36327 205.318 7.36327H195.018C194.408 7.36327 193.945 7.52147 193.629 7.83787C193.312 8.15427 193.154 8.61127 193.154 9.20897V28H188.584V9.20897C188.584 8.03707 188.795 7.04097 189.217 6.22067C189.65 5.40037 190.184 4.73827 190.816 4.23437C191.461 3.73047 192.158 3.36717 192.908 3.14447C193.658 2.91017 194.35 2.79297 194.982 2.79297H205.318C206.35 2.79297 207.275 2.92767 208.096 3.19727C208.916 3.45507 209.637 3.80657 210.258 4.25197C210.891 4.68547 211.424 5.18947 211.857 5.76367C212.303 6.33787 212.666 6.94137 212.947 7.57417C213.24 8.19527 213.451 8.82807 213.58 9.47267C213.709 10.1055 213.773 10.7031 213.773 11.2656V13.3398ZM237.283 21.707C237.283 22.3398 237.172 23.0254 236.949 23.7637C236.726 24.4902 236.363 25.1699 235.859 25.8027C235.367 26.4238 234.717 26.9453 233.908 27.3672C233.111 27.7891 232.139 28 230.99 28H222.746C222.113 28 221.428 27.8887 220.689 27.666C219.963 27.4434 219.283 27.0859 218.65 26.5938C218.029 26.0898 217.508 25.4395 217.086 24.6426C216.664 23.834 216.453 22.8555 216.453 21.707C216.453 21.0742 216.564 20.3887 216.787 19.6504C217.01 18.9121 217.367 18.2324 217.859 17.6113C218.363 16.9785 219.014 16.4512 219.81 16.0293C220.619 15.6074 221.598 15.3965 222.746 15.3965H230.99V19.7559H222.746C222.125 19.7559 221.644 19.9492 221.305 20.3359C220.965 20.7109 220.795 21.1797 220.795 21.7422C220.795 22.3398 220.988 22.8086 221.375 23.1484C221.773 23.4766 222.242 23.6406 222.781 23.6406H230.99C231.611 23.6406 232.092 23.4531 232.432 23.0781C232.771 22.7031 232.941 22.2344 232.941 21.6719V15.291C232.941 14.6934 232.754 14.2188 232.379 13.8672C232.016 13.5156 231.553 13.3398 230.99 13.3398H220.953V8.99797H230.99C231.623 8.99797 232.303 9.10937 233.029 9.33197C233.767 9.55467 234.447 9.91797 235.068 10.4219C235.701 10.9141 236.228 11.5645 236.65 12.373C237.072 13.1699 237.283 14.1426 237.283 15.291V21.707ZM260.635 21.584C260.635 22.3691 260.535 23.0781 260.336 23.7109C260.137 24.332 259.873 24.8828 259.545 25.3633C259.217 25.832 258.836 26.2363 258.402 26.5762C257.969 26.9043 257.512 27.1738 257.031 27.3848C256.562 27.5957 256.082 27.7539 255.59 27.8594C255.109 27.9531 254.652 28 254.219 28H241.844V23.4297H254.183C254.805 23.4297 255.273 23.2715 255.59 22.9551C255.906 22.6387 256.064 22.1816 256.064 21.584C256.006 20.3652 255.39 19.7559 254.219 19.7559H247.135C246.127 19.7559 245.271 19.5801 244.568 19.2285C243.865 18.877 243.291 18.4375 242.846 17.9102C242.412 17.3828 242.096 16.8145 241.896 16.2051C241.709 15.5957 241.615 15.0273 241.615 14.5C241.615 13.4805 241.797 12.625 242.16 11.9336C242.523 11.2305 242.98 10.6621 243.531 10.2285C244.082 9.79487 244.68 9.48437 245.324 9.29687C245.969 9.09767 246.572 8.99797 247.135 8.99797H258.367V13.5684H247.17C246.935 13.5684 246.748 13.5977 246.607 13.6562C246.478 13.7031 246.379 13.7734 246.308 13.8672C246.25 13.9492 246.215 14.043 246.203 14.1484C246.191 14.2422 246.185 14.3359 246.185 14.4297C246.197 14.6172 246.232 14.7637 246.291 14.8691C246.349 14.9746 246.42 15.0508 246.502 15.0977C246.596 15.1445 246.695 15.1738 246.801 15.1855C246.918 15.1855 247.029 15.1855 247.135 15.1855H254.219C255.39 15.1855 256.387 15.3965 257.207 15.8184C258.027 16.2402 258.689 16.7734 259.193 17.418C259.697 18.0508 260.06 18.7422 260.283 19.4922C260.517 20.2422 260.635 20.9395 260.635 21.584ZM283.301 21.584C283.301 22.3691 283.201 23.0781 283.002 23.7109C282.802 24.332 282.539 24.8828 282.211 25.3633C281.883 25.832 281.502 26.2363 281.068 26.5762C280.635 26.9043 280.177 27.1738 279.697 27.3848C279.228 27.5957 278.748 27.7539 278.256 27.8594C277.775 27.9531 277.318 28 276.885 28H264.51V23.4297H276.849C277.47 23.4297 277.939 23.2715 278.256 22.9551C278.572 22.6387 278.73 22.1816 278.73 21.584C278.672 20.3652 278.056 19.7559 276.885 19.7559H269.801C268.793 19.7559 267.937 19.5801 267.234 19.2285C266.531 18.877 265.957 18.4375 265.511 17.9102C265.078 17.3828 264.761 16.8145 264.562 16.2051C264.375 15.5957 264.281 15.0273 264.281 14.5C264.281 13.4805 264.463 12.625 264.826 11.9336C265.189 11.2305 265.646 10.6621 266.197 10.2285C266.748 9.79487 267.345 9.48437 267.99 9.29687C268.635 9.09767 269.238 8.99797 269.801 8.99797H281.033V13.5684H269.836C269.601 13.5684 269.414 13.5977 269.273 13.6562C269.144 13.7031 269.045 13.7734 268.974 13.8672C268.916 13.9492 268.881 14.043 268.869 14.1484C268.857 14.2422 268.851 14.3359 268.851 14.4297C268.863 14.6172 268.898 14.7637 268.957 14.8691C269.015 14.9746 269.086 15.0508 269.168 15.0977C269.261 15.1445 269.361 15.1738 269.467 15.1855C269.584 15.1855 269.695 15.1855 269.801 15.1855H276.885C278.056 15.1855 279.052 15.3965 279.873 15.8184C280.693 16.2402 281.355 16.7734 281.859 17.418C282.363 18.0508 282.726 18.7422 282.949 19.4922C283.183 20.2422 283.301 20.9395 283.301 21.584Z" fill="white"/>
<path d="M183.624 10.3766L174.623 1.37644C174.121 0.874396 173.307 0.874546 172.805 1.37674C172.564 1.61781 172.429 1.94462 172.429 2.2855V6.1427H163.429C162.718 6.1427 162.143 6.7184 162.143 7.4285C162.143 8.1386 162.718 8.7142 163.429 8.7142H173.714C174.425 8.7142 175 8.1386 175 7.4285V5.3892L180.897 11.2856L175 17.182V15.1428C175 14.4327 174.425 13.8571 173.714 13.8571H159.571V9.9998C159.571 9.2897 158.995 8.7142 158.285 8.7144C157.945 8.7145 157.618 8.8498 157.377 9.0908L148.376 18.091C147.875 18.5931 147.875 19.407 148.376 19.909L157.377 28.9092C157.618 29.1503 157.945 29.2859 158.286 29.2859C158.455 29.2865 158.622 29.2533 158.778 29.1882C159.258 28.989 159.571 28.5202 159.571 28.0002V24.143H168.571C169.282 24.143 169.857 23.5673 169.857 22.8572C169.857 22.1471 169.282 21.5715 168.571 21.5715H158.286C157.576 21.5715 157 22.1471 157 22.8572V24.8964L151.103 19L157 13.1036V15.1428C157 15.8529 157.576 16.4286 158.286 16.4286H172.429V20.2858C172.429 20.9959 173.005 21.5714 173.715 21.5712C174.056 21.5712 174.382 21.4358 174.623 21.1948L183.624 12.1946C184.126 11.6925 184.126 10.8786 183.624 10.3766Z" fill="white"/>
</svg>
